<?xml version="1.0" encoding="UTF-8"?>
<svg width="16px" height="16px" viewBox="0 0 16 16" version="1.1" xmlns="http://www.w3.org/2000/svg" xmlns:xlink="http://www.w3.org/1999/xlink">
    <!-- Generator: Sketch 51.3 (57544) - http://www.bohemiancoding.com/sketch -->
    <title>Combined Shape</title>
    <desc>Created with Sketch.</desc>
    <defs></defs>
    <g id="Page-1" stroke="none" stroke-width="1" fill="none" fill-rule="evenodd">
        <g id="3.-Forms-/-Inline-alerts-/-Icons-/-Icon_success" transform="translate(-1.000000, -1.000000)" fill="#59BF75">
            <path d="M7.35834362,10.2570194 L6.1463969,9.04507267 C5.75587261,8.65454838 5.12270763,8.65454838 4.73218334,9.04507267 L4.70710678,9.07014923 C4.31658249,9.46067352 4.31658249,10.0938385 4.70710678,10.4843628 L6.62616028,12.4034163 L6.65123684,12.4284929 C7.04176113,12.8190171 7.67492611,12.8190171 8.0654504,12.4284929 L13.4284929,7.0654504 C13.8190171,6.67492611 13.8190171,6.04176113 13.4284929,5.65123684 L13.4034163,5.62616028 C13.012892,5.23563599 12.379727,5.23563599 11.9892027,5.62616028 L7.35834362,10.2570194 Z M4.8458278,1 L13.1541722,1 C14.4914503,1 14.9763797,1.13923842 15.4652686,1.40069906 C15.9541574,1.66215969 16.3378403,2.04584256 16.5993009,2.53473144 C16.8607616,3.02362033 17,3.50854969 17,4.8458278 L17,13.1541722 C17,14.4914503 16.8607616,14.9763797 16.5993009,15.4652686 C16.3378403,15.9541574 15.9541574,16.3378403 15.4652686,16.5993009 C14.9763797,16.8607616 14.4914503,17 13.1541722,17 L4.8458278,17 C3.50854969,17 3.02362033,16.8607616 2.53473144,16.5993009 C2.04584256,16.3378403 1.66215969,15.9541574 1.40069906,15.4652686 C1.13923842,14.9763797 1,14.4914503 1,13.1541722 L1,4.8458278 C1,3.50854969 1.13923842,3.02362033 1.40069906,2.53473144 C1.66215969,2.04584256 2.04584256,1.66215969 2.53473144,1.40069906 C3.02362033,1.13923842 3.50854969,1 4.8458278,1 Z" id="Combined-Shape"></path>
        </g>
    </g>
</svg>