<?xml version="1.0" encoding="UTF-8"?>
<svg width="16px" height="15px" viewBox="0 0 16 15" version="1.1" xmlns="http://www.w3.org/2000/svg" xmlns:xlink="http://www.w3.org/1999/xlink">
    <!-- Generator: Sketch 51.3 (57544) - http://www.bohemiancoding.com/sketch -->
    <title>Warning</title>
    <desc>Created with Sketch.</desc>
    <defs></defs>
    <g id="Page-1" stroke="none" stroke-width="1" fill="none" fill-rule="evenodd">
        <g id="3.-Forms-/-Inline-alerts-/-Icons-/-Icon_warning" transform="translate(-1.000000, -1.000000)" fill="#F28F06">
            <path d="M9.71,12.9211937 C9.8,12.8195585 9.87,12.709873 9.92,12.5891183 C9.97,12.4683635 10,12.3375459 10,12.2067283 C10,11.9440868 9.89,11.6834579 9.71,11.4922629 C9.34,11.1199359 8.66,11.1199359 8.29,11.4922629 C8.1,11.6834579 8,11.9440868 8,12.2067283 C8,12.3375459 8.02,12.4683635 8.069,12.5891183 C8.12,12.709873 8.2,12.8195585 8.29,12.9211937 C8.48,13.1113824 8.73,13.2130176 9,13.2130176 C9.27,13.2130176 9.52,13.1113824 9.71,12.9211937 Z M10,8.9034042 L10,5.48977175 C10,5.01869047 9.553,4.63636364 9,4.63636364 C8.447,4.63636364 8,5.01869047 8,5.48977175 L8,8.9034042 C8,9.37533889 8.447,9.75681232 9,9.75681232 C9.553,9.75681232 10,9.37533889 10,8.9034042 Z M3.08223831,15.5454545 C2.71537829,15.5411131 2.36109632,15.4405354 2.04944,15.2545753 C1.56448598,14.9644196 1.21719182,14.4969867 1.07254416,13.936212 C0.927197709,13.3761609 1.00196728,12.791508 1.28147968,12.2893433 L7.20714256,2.04778803 C7.20784134,2.04634087 7.20784134,2.04561729 7.20854012,2.04417013 C7.38323537,1.74677864 7.62641116,1.49424912 7.91361015,1.31407763 C8.90098771,0.693245752 10.1937326,1.0217512 10.7925879,2.04417013 L16.7133593,12.2792132 C16.8999338,12.6127837 16.9963656,12.981086 16.9998595,13.3522827 C17.0131363,14.5469138 16.0837576,15.5317065 14.9272751,15.5454545 L3.08223831,15.5454545 Z" id="Warning"></path>
        </g>
    </g>
</svg>